<svg xmlns="http://www.w3.org/2000/svg" viewBox="0 0 1600 520" role="img" aria-labelledby="title desc">
  <title id="title">dcc retro CP/M Z80 compiler banner</title>
  <desc id="desc">A retro terminal-inspired banner showing dcc compiling C89 and C99-style source into CP/M 2.2 Z80 applications.</desc>
  <defs>
    <linearGradient id="bg" x1="0" y1="0" x2="1" y2="1">
      <stop offset="0" stop-color="#101820"/>
      <stop offset="0.48" stop-color="#18252c"/>
      <stop offset="1" stop-color="#142a33"/>
    </linearGradient>
    <linearGradient id="tube" x1="0" y1="0" x2="0" y2="1">
      <stop offset="0" stop-color="#263238"/>
      <stop offset="1" stop-color="#0d1418"/>
    </linearGradient>
    <linearGradient id="screen" x1="0" y1="0" x2="1" y2="1">
      <stop offset="0" stop-color="#092017"/>
      <stop offset="1" stop-color="#102f22"/>
    </linearGradient>
    <linearGradient id="paper" x1="0" y1="0" x2="1" y2="1">
      <stop offset="0" stop-color="#f4f0df"/>
      <stop offset="1" stop-color="#d7ceb1"/>
    </linearGradient>
    <filter id="softShadow" x="-20%" y="-20%" width="140%" height="140%">
      <feDropShadow dx="0" dy="12" stdDeviation="18" flood-color="#000" flood-opacity="0.45"/>
    </filter>
    <pattern id="scan" width="8" height="8" patternUnits="userSpaceOnUse">
      <rect width="8" height="8" fill="transparent"/>
      <rect y="0" width="8" height="1" fill="#ffffff" opacity="0.055"/>
    </pattern>
    <style>
      .mono { font-family: ui-monospace, SFMono-Regular, Menlo, Consolas, 'Liberation Mono', monospace; }
      .sans { font-family: Inter, system-ui, -apple-system, BlinkMacSystemFont, 'Segoe UI', sans-serif; }
      .green { fill: #7dff9a; }
      .amber { fill: #ffc857; }
      .cyan { fill: #6ee7f5; }
      .muted { fill: #b8c7c2; }
      .dark { fill: #172026; }
      .stroke-green { stroke: #7dff9a; }
      .stroke-amber { stroke: #ffc857; }
      .stroke-cyan { stroke: #6ee7f5; }
    </style>
  </defs>

  <rect width="1600" height="520" fill="url(#bg)"/>
  <rect width="1600" height="520" fill="url(#scan)" opacity="0.55"/>

  <g opacity="0.18" stroke="#6ee7f5" stroke-width="2" fill="none">
    <path d="M70 425 C260 330 310 470 520 350 S850 330 1030 240 S1290 190 1520 110"/>
    <path d="M90 95 H390 M470 95 H680 M760 95 H1040 M1125 95 H1510"/>
    <path d="M1140 405 H1510 M980 405 H1070 M720 405 H910"/>
  </g>

  <g transform="translate(88 82)" filter="url(#softShadow)">
    <rect x="0" y="0" width="520" height="340" rx="22" fill="url(#tube)" stroke="#40545b" stroke-width="4"/>
    <rect x="42" y="38" width="436" height="236" rx="18" fill="url(#screen)" stroke="#73d988" stroke-width="3"/>
    <rect x="42" y="38" width="436" height="236" rx="18" fill="url(#scan)"/>
    <circle cx="80" cy="304" r="12" fill="#ffc857"/>
    <circle cx="122" cy="304" r="12" fill="#6ee7f5"/>
    <rect x="375" y="292" width="74" height="24" rx="12" fill="#293941" stroke="#536872"/>

    <text x="72" y="85" class="mono green" font-size="24">A&gt;dcc HELLO.C -o HELLO.MAC</text>
    <text x="72" y="124" class="mono green" font-size="24">A&gt;m80 =HELLO.MAC</text>
    <text x="72" y="163" class="mono green" font-size="24">A&gt;l80 RTLMIN,HELLO,HELLO/N/E</text>
    <text x="72" y="213" class="mono amber" font-size="28">HELLO.COM ready</text>
    <rect x="72" y="232" width="16" height="28" fill="#7dff9a">
      <animate attributeName="opacity" values="1;1;0;0;1" dur="1.2s" repeatCount="indefinite"/>
    </rect>
  </g>

  <g transform="translate(690 74)">
    <text x="0" y="48" class="sans" font-size="58" font-weight="800" fill="#f2f7f4">dcc</text>
    <text x="118" y="48" class="sans" font-size="30" font-weight="700" fill="#ffc857">C89 + practical C99 conveniences</text>
    <text x="0" y="94" class="sans muted" font-size="24">Cross-compile modern-feeling C for CP/M 2.2 on the Z80.</text>

    <g transform="translate(0 138)">
      <rect x="0" y="0" width="185" height="92" rx="12" fill="url(#paper)" stroke="#fff6d6" stroke-width="2"/>
      <text x="24" y="34" class="mono dark" font-size="24">main.c</text>
      <text x="24" y="64" class="mono dark" font-size="18">C source</text>

      <path d="M206 46 H284" stroke="#ffc857" stroke-width="6" stroke-linecap="round"/>
      <path d="M270 28 L302 46 L270 64" fill="none" stroke="#ffc857" stroke-width="6" stroke-linecap="round" stroke-linejoin="round"/>
      <text x="218" y="28" class="mono amber" font-size="16">dcc</text>

      <rect x="330" y="0" width="185" height="92" rx="12" fill="#1b2d36" stroke="#6ee7f5" stroke-width="2"/>
      <text x="354" y="34" class="mono cyan" font-size="24">MAIN.MAC</text>
      <text x="354" y="64" class="mono muted" font-size="18">M80 assembly</text>

      <path d="M536 46 H614" stroke="#7dff9a" stroke-width="6" stroke-linecap="round"/>
      <path d="M600 28 L632 46 L600 64" fill="none" stroke="#7dff9a" stroke-width="6" stroke-linecap="round" stroke-linejoin="round"/>
      <text x="546" y="28" class="mono green" font-size="16">strip + link</text>

      <rect x="660" y="0" width="185" height="92" rx="12" fill="#20331f" stroke="#7dff9a" stroke-width="2"/>
      <text x="684" y="34" class="mono green" font-size="24">APP.COM</text>
      <text x="684" y="64" class="mono muted" font-size="18">CP/M program</text>
    </g>

    <g transform="translate(0 282)">
      <rect x="0" y="0" width="170" height="48" rx="24" fill="#23333a" stroke="#6ee7f5"/>
      <text x="34" y="32" class="mono cyan" font-size="22">Z80</text>
      <rect x="200" y="0" width="170" height="48" rx="24" fill="#2d2b1c" stroke="#ffc857"/>
      <text x="232" y="32" class="mono amber" font-size="22">CP/M 2.2</text>
      <rect x="400" y="0" width="190" height="48" rx="24" fill="#203321" stroke="#7dff9a"/>
      <text x="430" y="32" class="mono green" font-size="22">RTLMIN.MAC</text>
      <rect x="620" y="0" width="210" height="48" rx="24" fill="#302735" stroke="#d6a4ff"/>
      <text x="650" y="32" class="mono" fill="#d6a4ff" font-size="22">ntvcm / M80 / L80</text>
    </g>
  </g>

</svg>
